<?xml version="1.0" encoding="UTF-8"?>
<svg xmlns="http://www.w3.org/2000/svg" xmlns:xlink="http://www.w3.org/1999/xlink" width="250px" height="250px" viewBox="0 0 250 250" version="1.1">
<defs>
<clipPath id="clip1">
  <path d="M 36 101.171875 L 62 101.171875 L 62 144.667969 L 36 144.667969 Z M 36 101.171875 "/>
</clipPath>
<clipPath id="clip2">
  <path d="M 40.667969 141.332031 L 59 141.332031 L 59 148.671875 L 40.667969 148.671875 Z M 40.667969 141.332031 "/>
</clipPath>
</defs>
<g id="surface1">
<path style=" stroke:none;fill-rule:nonzero;fill:rgb(1.960784%,2.745098%,23.529412%);fill-opacity:1;" d="M 59.457031 123.800781 C 59.816406 123.503906 60.078125 123.140625 60.230469 122.699219 C 60.382812 122.261719 60.410156 121.8125 60.308594 121.359375 L 58.410156 112.886719 L 58.585938 112.769531 C 59.632812 112.0625 60.488281 111.097656 61.035156 110.007812 L 61.605469 108.871094 C 61.929688 108.230469 61.347656 107.511719 60.652344 107.691406 L 59.421875 108.007812 C 58.238281 108.316406 57.121094 108.945312 56.207031 109.816406 L 56.050781 109.964844 L 48.175781 106.3125 C 47.753906 106.117188 47.308594 106.046875 46.847656 106.105469 C 46.386719 106.160156 45.972656 106.335938 45.613281 106.628906 L 53.320312 112.574219 L 48.988281 116.710938 L 45.558594 115.113281 C 45.359375 115.023438 45.152344 114.988281 44.9375 115.015625 C 44.722656 115.042969 44.53125 115.125 44.363281 115.261719 L 47.726562 117.964844 C 47.507812 118.234375 47.332031 118.527344 47.195312 118.847656 C 47.011719 119.28125 47.386719 119.746094 47.847656 119.660156 C 48.191406 119.59375 48.515625 119.484375 48.824219 119.328125 L 50.753906 123.191406 C 50.925781 123.050781 51.042969 122.882812 51.113281 122.675781 C 51.183594 122.472656 51.199219 122.261719 51.152344 122.050781 L 50.316406 118.359375 L 55.277344 115.003906 Z M 59.457031 123.800781 "/>
<g clip-path="url(#clip1)" clip-rule="nonzero">
<path style=" stroke:none;fill-rule:nonzero;fill:rgb(92.156863%,40.000001%,16.862746%);fill-opacity:1;" d="M 51.324219 137.472656 C 46.101562 133.511719 40.265625 124.167969 40.265625 113.769531 C 40.265625 107.515625 45.851562 102.445312 52.742188 102.445312 C 54.128906 102.445312 55.488281 102.652344 56.816406 103.066406 C 54.699219 101.808594 52.410156 101.183594 49.953125 101.183594 C 42.519531 101.183594 36.488281 107.210938 36.488281 114.644531 C 36.488281 127.011719 42.921875 138.582031 49.953125 144.144531 C 54.878906 140.246094 59.507812 133.402344 61.839844 125.402344 C 59.421875 130.484375 54.695312 135.15625 51.324219 137.472656 Z M 51.324219 137.472656 "/>
</g>
<g clip-path="url(#clip2)" clip-rule="nonzero">
<path style=" stroke:none;fill-rule:nonzero;fill:rgb(1.960784%,2.745098%,23.529412%);fill-opacity:1;" d="M 54.136719 141.355469 C 55.488281 141.832031 56.347656 142.535156 56.347656 143.316406 C 56.347656 144.761719 53.4375 145.929688 49.847656 145.929688 C 46.261719 145.929688 43.355469 144.761719 43.355469 143.316406 C 43.355469 142.535156 44.207031 141.832031 45.5625 141.355469 C 42.707031 142.023438 40.761719 143.339844 40.761719 144.855469 C 40.761719 147.042969 44.832031 148.816406 49.847656 148.816406 C 54.867188 148.816406 58.9375 147.042969 58.9375 144.855469 C 58.9375 143.339844 56.992188 142.023438 54.136719 141.355469 Z M 54.136719 141.355469 "/>
</g>
<path style=" stroke:none;fill-rule:nonzero;fill:rgb(1.960784%,2.745098%,23.529412%);fill-opacity:1;" d="M 45.632812 118.589844 L 47.851562 121.421875 C 26.871094 136.941406 34.917969 143.917969 45.308594 140.675781 C 27.511719 146.574219 25 133.136719 45.632812 118.589844 Z M 45.632812 118.589844 "/>
<path style=" stroke:none;fill-rule:nonzero;fill:rgb(1.960784%,2.745098%,23.529412%);fill-opacity:1;" d="M 83.296875 136.707031 L 80.535156 133.394531 C 79.769531 133.589844 78.988281 133.6875 78.191406 133.6875 C 76.488281 133.6875 74.925781 133.289062 73.503906 132.488281 C 72.082031 131.683594 70.953125 130.578125 70.121094 129.167969 C 69.285156 127.75 68.871094 126.144531 68.871094 124.355469 C 68.871094 122.582031 69.285156 120.996094 70.121094 119.582031 C 70.953125 118.167969 72.082031 117.058594 73.503906 116.261719 C 74.925781 115.464844 76.488281 115.0625 78.191406 115.0625 C 79.90625 115.0625 81.472656 115.464844 82.890625 116.261719 C 84.308594 117.058594 85.425781 118.167969 86.246094 119.582031 C 87.070312 120.996094 87.484375 122.582031 87.484375 124.355469 C 87.484375 125.972656 87.140625 127.445312 86.453125 128.769531 C 85.769531 130.097656 84.839844 131.175781 83.660156 132.011719 L 87.828125 136.707031 Z M 72.621094 124.355469 C 72.621094 125.570312 72.851562 126.640625 73.316406 127.5625 C 73.789062 128.480469 74.445312 129.1875 75.285156 129.6875 C 76.125 130.183594 77.09375 130.425781 78.191406 130.425781 C 79.28125 130.425781 80.246094 130.183594 81.078125 129.6875 C 81.910156 129.1875 82.558594 128.480469 83.027344 127.5625 C 83.496094 126.640625 83.734375 125.570312 83.734375 124.355469 C 83.734375 123.140625 83.496094 122.078125 83.027344 121.167969 C 82.558594 120.257812 81.910156 119.558594 81.078125 119.074219 C 80.246094 118.589844 79.28125 118.34375 78.191406 118.34375 C 77.09375 118.34375 76.125 118.589844 75.285156 119.074219 C 74.445312 119.558594 73.789062 120.257812 73.316406 121.167969 C 72.851562 122.078125 72.621094 123.140625 72.621094 124.355469 Z M 72.621094 124.355469 "/>
<path style=" stroke:none;fill-rule:nonzero;fill:rgb(1.960784%,2.745098%,23.529412%);fill-opacity:1;" d="M 103.160156 119.074219 L 103.160156 133.5 L 99.492188 133.5 L 99.492188 131.675781 C 99.019531 132.300781 98.40625 132.796875 97.648438 133.15625 C 96.898438 133.511719 96.078125 133.6875 95.191406 133.6875 C 94.066406 133.6875 93.070312 133.449219 92.203125 132.96875 C 91.332031 132.488281 90.648438 131.785156 90.148438 130.855469 C 89.65625 129.925781 89.410156 128.816406 89.410156 127.53125 L 89.410156 119.074219 L 93.054688 119.074219 L 93.054688 127.011719 C 93.054688 128.15625 93.339844 129.039062 93.910156 129.65625 C 94.484375 130.277344 95.269531 130.582031 96.265625 130.582031 C 97.269531 130.582031 98.058594 130.277344 98.628906 129.65625 C 99.203125 129.039062 99.492188 128.15625 99.492188 127.011719 L 99.492188 119.074219 Z M 103.160156 119.074219 "/>
<path style=" stroke:none;fill-rule:nonzero;fill:rgb(1.960784%,2.745098%,23.529412%);fill-opacity:1;" d="M 107.898438 117.355469 C 107.257812 117.355469 106.722656 117.152344 106.292969 116.738281 C 105.867188 116.332031 105.65625 115.824219 105.65625 115.21875 C 105.65625 114.609375 105.867188 114.101562 106.292969 113.699219 C 106.722656 113.289062 107.257812 113.082031 107.898438 113.082031 C 108.542969 113.082031 109.078125 113.289062 109.5 113.699219 C 109.921875 114.101562 110.136719 114.609375 110.136719 115.21875 C 110.136719 115.824219 109.921875 116.332031 109.5 116.738281 C 109.078125 117.152344 108.542969 117.355469 107.898438 117.355469 Z M 109.699219 119.074219 L 109.699219 133.5 L 106.054688 133.5 L 106.054688 119.074219 Z M 109.699219 119.074219 "/>
<path style=" stroke:none;fill-rule:nonzero;fill:rgb(1.960784%,2.745098%,23.529412%);fill-opacity:1;" d="M 111.652344 126.28125 C 111.652344 124.789062 111.953125 123.484375 112.558594 122.363281 C 113.167969 121.246094 114.011719 120.378906 115.089844 119.761719 C 116.164062 119.144531 117.398438 118.832031 118.789062 118.832031 C 120.570312 118.832031 122.050781 119.28125 123.226562 120.175781 C 124.398438 121.074219 125.183594 122.328125 125.578125 123.9375 L 121.652344 123.9375 C 121.445312 123.3125 121.089844 122.824219 120.589844 122.46875 C 120.09375 122.113281 119.484375 121.9375 118.757812 121.9375 C 117.714844 121.9375 116.886719 122.316406 116.277344 123.074219 C 115.671875 123.824219 115.371094 124.894531 115.371094 126.28125 C 115.371094 127.65625 115.671875 128.722656 116.277344 129.480469 C 116.886719 130.230469 117.714844 130.605469 118.757812 130.605469 C 120.234375 130.605469 121.199219 129.945312 121.652344 128.625 L 125.578125 128.625 C 125.183594 130.1875 124.394531 131.433594 123.214844 132.355469 C 122.03125 133.277344 120.558594 133.738281 118.789062 133.738281 C 117.398438 133.738281 116.164062 133.433594 115.089844 132.8125 C 114.011719 132.195312 113.167969 131.328125 112.558594 130.207031 C 111.953125 129.082031 111.652344 127.777344 111.652344 126.28125 Z M 111.652344 126.28125 "/>
<path style=" stroke:none;fill-rule:nonzero;fill:rgb(1.960784%,2.745098%,23.529412%);fill-opacity:1;" d="M 136.101562 133.5 L 131.207031 127.355469 L 131.207031 133.5 L 127.5625 133.5 L 127.5625 114.230469 L 131.207031 114.230469 L 131.207031 125.1875 L 136.050781 119.074219 L 140.789062 119.074219 L 134.4375 126.3125 L 140.84375 133.5 Z M 136.101562 133.5 "/>
<path style=" stroke:none;fill-rule:nonzero;fill:rgb(92.156863%,40.000001%,16.862746%);fill-opacity:1;" d="M 151.441406 133.5 L 147.433594 126.417969 L 145.714844 126.417969 L 145.714844 133.5 L 142.066406 133.5 L 142.066406 115.324219 L 148.890625 115.324219 C 150.292969 115.324219 151.488281 115.570312 152.472656 116.0625 C 153.464844 116.558594 154.207031 117.226562 154.703125 118.074219 C 155.203125 118.914062 155.453125 119.855469 155.453125 120.894531 C 155.453125 122.089844 155.105469 123.171875 154.410156 124.136719 C 153.714844 125.101562 152.683594 125.765625 151.308594 126.125 L 155.660156 133.5 Z M 145.714844 123.675781 L 148.753906 123.675781 C 149.746094 123.675781 150.488281 123.441406 150.972656 122.96875 C 151.457031 122.488281 151.703125 121.824219 151.703125 120.96875 C 151.703125 120.136719 151.457031 119.488281 150.972656 119.03125 C 150.488281 118.574219 149.746094 118.34375 148.753906 118.34375 L 145.714844 118.34375 Z M 145.714844 123.675781 "/>
<path style=" stroke:none;fill-rule:nonzero;fill:rgb(92.156863%,40.000001%,16.862746%);fill-opacity:1;" d="M 164.460938 133.738281 C 163.070312 133.738281 161.820312 133.433594 160.710938 132.8125 C 159.601562 132.195312 158.726562 131.324219 158.085938 130.199219 C 157.453125 129.066406 157.140625 127.761719 157.140625 126.28125 C 157.140625 124.808594 157.464844 123.511719 158.117188 122.386719 C 158.769531 121.253906 159.660156 120.378906 160.785156 119.761719 C 161.914062 119.144531 163.175781 118.832031 164.566406 118.832031 C 165.953125 118.832031 167.210938 119.144531 168.335938 119.761719 C 169.46875 120.378906 170.359375 121.253906 171.003906 122.386719 C 171.65625 123.511719 171.984375 124.808594 171.984375 126.28125 C 171.984375 127.761719 171.648438 129.066406 170.984375 130.199219 C 170.316406 131.324219 169.414062 132.195312 168.273438 132.8125 C 167.132812 133.433594 165.863281 133.738281 164.460938 133.738281 Z M 164.460938 130.550781 C 165.121094 130.550781 165.738281 130.394531 166.316406 130.074219 C 166.898438 129.753906 167.363281 129.277344 167.710938 128.636719 C 168.058594 127.988281 168.234375 127.207031 168.234375 126.28125 C 168.234375 124.914062 167.871094 123.863281 167.148438 123.125 C 166.433594 122.382812 165.554688 122.011719 164.515625 122.011719 C 163.472656 122.011719 162.597656 122.382812 161.890625 123.125 C 161.1875 123.863281 160.835938 124.914062 160.835938 126.28125 C 160.835938 127.65625 161.179688 128.714844 161.867188 129.449219 C 162.554688 130.183594 163.421875 130.550781 164.460938 130.550781 Z M 164.460938 130.550781 "/>
<path style=" stroke:none;fill-rule:nonzero;fill:rgb(92.156863%,40.000001%,16.862746%);fill-opacity:1;" d="M 187.582031 119.074219 L 187.582031 133.5 L 183.914062 133.5 L 183.914062 131.675781 C 183.441406 132.300781 182.824219 132.796875 182.070312 133.15625 C 181.320312 133.511719 180.5 133.6875 179.613281 133.6875 C 178.488281 133.6875 177.488281 133.449219 176.621094 132.96875 C 175.753906 132.488281 175.070312 131.785156 174.570312 130.855469 C 174.074219 129.925781 173.832031 128.816406 173.832031 127.53125 L 173.832031 119.074219 L 177.476562 119.074219 L 177.476562 127.011719 C 177.476562 128.15625 177.761719 129.039062 178.332031 129.65625 C 178.90625 130.277344 179.691406 130.582031 180.683594 130.582031 C 181.691406 130.582031 182.480469 130.277344 183.050781 129.65625 C 183.625 129.039062 183.914062 128.15625 183.914062 127.011719 L 183.914062 119.074219 Z M 187.582031 119.074219 "/>
<path style=" stroke:none;fill-rule:nonzero;fill:rgb(92.156863%,40.000001%,16.862746%);fill-opacity:1;" d="M 194.714844 122.0625 L 194.714844 129.042969 C 194.714844 129.527344 194.832031 129.882812 195.066406 130.105469 C 195.300781 130.320312 195.699219 130.425781 196.253906 130.425781 L 197.941406 130.425781 L 197.941406 133.5 L 195.652344 133.5 C 192.582031 133.5 191.046875 132.007812 191.046875 129.019531 L 191.046875 122.0625 L 189.328125 122.0625 L 189.328125 119.074219 L 191.046875 119.074219 L 191.046875 115.5 L 194.714844 115.5 L 194.714844 119.074219 L 197.941406 119.074219 L 197.941406 122.0625 Z M 194.714844 122.0625 "/>
<path style=" stroke:none;fill-rule:nonzero;fill:rgb(92.156863%,40.000001%,16.862746%);fill-opacity:1;" d="M 213.28125 125.96875 C 213.28125 126.488281 213.242188 126.957031 213.175781 127.375 L 202.632812 127.375 C 202.71875 128.417969 203.078125 129.234375 203.71875 129.824219 C 204.363281 130.414062 205.15625 130.707031 206.09375 130.707031 C 207.445312 130.707031 208.410156 130.128906 208.988281 128.96875 L 212.914062 128.96875 C 212.5 130.359375 211.699219 131.5 210.519531 132.394531 C 209.335938 133.292969 207.890625 133.738281 206.175781 133.738281 C 204.785156 133.738281 203.539062 133.433594 202.4375 132.8125 C 201.332031 132.195312 200.46875 131.324219 199.851562 130.199219 C 199.242188 129.066406 198.9375 127.761719 198.9375 126.28125 C 198.9375 124.789062 199.238281 123.480469 199.84375 122.355469 C 200.453125 121.222656 201.304688 120.355469 202.394531 119.75 C 203.492188 119.140625 204.75 118.832031 206.175781 118.832031 C 207.542969 118.832031 208.769531 119.128906 209.851562 119.71875 C 210.941406 120.308594 211.785156 121.152344 212.382812 122.238281 C 212.980469 123.324219 213.28125 124.566406 213.28125 125.96875 Z M 209.507812 124.925781 C 209.488281 123.988281 209.148438 123.238281 208.488281 122.675781 C 207.828125 122.113281 207.023438 121.832031 206.070312 121.832031 C 205.167969 121.832031 204.40625 122.109375 203.789062 122.65625 C 203.171875 123.199219 202.792969 123.957031 202.65625 124.925781 Z M 209.507812 124.925781 "/>
</g>
</svg>
