<svg xmlns="http://www.w3.org/2000/svg"
    xmlns:xlink="http://www.w3.org/1999/xlink" width="500" zoomAndPan="magnify" viewBox="0 0 375 374.999991" height="500" preserveAspectRatio="xMidYMid meet" version="1.0">
    <defs>
        <g/>
        <clipPath id="dcc5474a2e">
            <path d="M 54 151.757812 L 93 151.757812 L 93 217 L 54 217 Z M 54 151.757812 " clip-rule="nonzero"/>
        </clipPath>
        <clipPath id="3d0547b44c">
            <path d="M 61 212 L 89 212 L 89 223.007812 L 61 223.007812 Z M 61 212 " clip-rule="nonzero"/>
        </clipPath>
    </defs>
    <path fill="#ffffff" d="M 89.183594 185.699219 C 89.726562 185.257812 90.117188 184.710938 90.34375 184.050781 C 90.574219 183.390625 90.613281 182.71875 90.460938 182.039062 L 87.617188 169.332031 L 87.878906 169.152344 C 89.449219 168.09375 90.730469 166.648438 91.554688 165.011719 L 92.410156 163.308594 C 92.894531 162.347656 92.019531 161.265625 90.980469 161.535156 L 89.132812 162.011719 C 87.359375 162.472656 85.679688 163.417969 84.308594 164.726562 L 84.078125 164.945312 L 72.265625 159.46875 C 71.628906 159.175781 70.964844 159.070312 70.273438 159.15625 C 69.578125 159.242188 68.960938 159.503906 68.417969 159.941406 L 79.980469 168.859375 L 73.484375 175.066406 L 68.335938 172.671875 C 68.039062 172.535156 67.730469 172.484375 67.40625 172.523438 C 67.085938 172.5625 66.796875 172.6875 66.542969 172.890625 L 71.589844 176.945312 C 71.261719 177.351562 70.996094 177.792969 70.792969 178.269531 C 70.519531 178.921875 71.082031 179.617188 71.773438 179.488281 C 72.285156 179.390625 72.773438 179.226562 73.238281 178.992188 L 76.132812 184.785156 C 76.386719 184.578125 76.566406 184.324219 76.671875 184.015625 C 76.777344 183.707031 76.796875 183.394531 76.726562 183.078125 L 75.476562 177.539062 L 82.917969 172.507812 Z M 89.183594 185.699219 " fill-opacity="1" fill-rule="nonzero"/>
    <g clip-path="url(#dcc5474a2e)">
        <path fill="#eb662b" d="M 76.988281 206.210938 C 69.152344 200.269531 60.398438 186.25 60.398438 170.652344 C 60.398438 161.273438 68.777344 153.667969 79.113281 153.667969 C 81.195312 153.667969 83.234375 153.976562 85.222656 154.597656 C 82.050781 152.710938 78.617188 151.773438 74.929688 151.777344 C 63.777344 151.777344 54.734375 160.816406 54.734375 171.96875 C 54.734375 190.515625 64.382812 207.871094 74.929688 216.214844 C 82.316406 210.371094 89.261719 200.105469 92.761719 188.101562 C 89.132812 195.726562 82.042969 202.734375 76.988281 206.210938 Z M 76.988281 206.210938 " fill-opacity="1" fill-rule="nonzero"/>
    </g>
    <g clip-path="url(#3d0547b44c)">
        <path fill="#ffffff" d="M 81.203125 212.035156 C 83.234375 212.75 84.519531 213.804688 84.519531 214.976562 C 84.519531 217.140625 80.15625 218.894531 74.773438 218.894531 C 69.390625 218.894531 65.03125 217.140625 65.03125 214.976562 C 65.03125 213.804688 66.3125 212.75 68.34375 212.035156 C 64.058594 213.035156 61.144531 215.007812 61.144531 217.28125 C 61.144531 220.5625 67.246094 223.226562 74.773438 223.226562 C 82.300781 223.226562 88.40625 220.5625 88.40625 217.28125 C 88.40625 215.007812 85.488281 213.035156 81.203125 212.035156 Z M 81.203125 212.035156 " fill-opacity="1" fill-rule="nonzero"/>
    </g>
    <path fill="#ffffff" d="M 68.449219 177.882812 L 71.777344 182.132812 C 40.308594 205.410156 52.375 215.878906 67.960938 211.015625 C 41.269531 219.859375 37.5 199.707031 68.449219 177.882812 Z M 68.449219 177.882812 " fill-opacity="1" fill-rule="nonzero"/>
    <g fill="#ffffff" fill-opacity="1">
        <g transform="translate(101.180381, 212.899205)">
            <g>
                <path d="M 23.015625 4.8125 L 18.875 -0.15625 C 17.726562 0.132812 16.554688 0.28125 15.359375 0.28125 C 12.804688 0.28125 10.460938 -0.316406 8.328125 -1.515625 C 6.191406 -2.722656 4.5 -4.382812 3.25 -6.5 C 2 -8.625 1.375 -11.03125 1.375 -13.71875 C 1.375 -16.375 2 -18.757812 3.25 -20.875 C 4.5 -23 6.191406 -24.660156 8.328125 -25.859375 C 10.460938 -27.054688 12.804688 -27.65625 15.359375 -27.65625 C 17.929688 -27.65625 20.28125 -27.054688 22.40625 -25.859375 C 24.53125 -24.660156 26.207031 -23 27.4375 -20.875 C 28.675781 -18.757812 29.296875 -16.375 29.296875 -13.71875 C 29.296875 -11.289062 28.78125 -9.082031 27.75 -7.09375 C 26.726562 -5.101562 25.332031 -3.484375 23.5625 -2.234375 L 29.8125 4.8125 Z M 7 -13.71875 C 7 -11.894531 7.347656 -10.289062 8.046875 -8.90625 C 8.753906 -7.53125 9.738281 -6.46875 11 -5.71875 C 12.257812 -4.976562 13.710938 -4.609375 15.359375 -4.609375 C 16.992188 -4.609375 18.4375 -4.976562 19.6875 -5.71875 C 20.9375 -6.46875 21.910156 -7.53125 22.609375 -8.90625 C 23.316406 -10.289062 23.671875 -11.894531 23.671875 -13.71875 C 23.671875 -15.539062 23.316406 -17.132812 22.609375 -18.5 C 21.910156 -19.863281 20.9375 -20.910156 19.6875 -21.640625 C 18.4375 -22.367188 16.992188 -22.734375 15.359375 -22.734375 C 13.710938 -22.734375 12.257812 -22.367188 11 -21.640625 C 9.738281 -20.910156 8.753906 -19.863281 8.046875 -18.5 C 7.347656 -17.132812 7 -15.539062 7 -13.71875 Z M 7 -13.71875 "/>
            </g>
        </g>
    </g>
    <g fill="#ffffff" fill-opacity="1">
        <g transform="translate(130.864585, 212.899205)">
            <g>
                <path d="M 23.125 -21.640625 L 23.125 0 L 17.625 0 L 17.625 -2.734375 C 16.914062 -1.796875 15.992188 -1.054688 14.859375 -0.515625 C 13.734375 0.015625 12.503906 0.28125 11.171875 0.28125 C 9.484375 0.28125 7.988281 -0.078125 6.6875 -0.796875 C 5.382812 -1.515625 4.359375 -2.570312 3.609375 -3.96875 C 2.867188 -5.363281 2.5 -7.023438 2.5 -8.953125 L 2.5 -21.640625 L 7.96875 -21.640625 L 7.96875 -9.734375 C 7.96875 -8.015625 8.394531 -6.691406 9.25 -5.765625 C 10.113281 -4.835938 11.289062 -4.375 12.78125 -4.375 C 14.289062 -4.375 15.472656 -4.835938 16.328125 -5.765625 C 17.191406 -6.691406 17.625 -8.015625 17.625 -9.734375 L 17.625 -21.640625 Z M 23.125 -21.640625 "/>
            </g>
        </g>
    </g>
    <g fill="#ffffff" fill-opacity="1">
        <g transform="translate(155.627418, 212.899205)">
            <g>
                <path d="M 5.46875 -24.21875 C 4.507812 -24.21875 3.707031 -24.523438 3.0625 -25.140625 C 2.425781 -25.753906 2.109375 -26.515625 2.109375 -27.421875 C 2.109375 -28.335938 2.425781 -29.097656 3.0625 -29.703125 C 3.707031 -30.316406 4.507812 -30.625 5.46875 -30.625 C 6.4375 -30.625 7.238281 -30.316406 7.875 -29.703125 C 8.507812 -29.097656 8.828125 -28.335938 8.828125 -27.421875 C 8.828125 -26.515625 8.507812 -25.753906 7.875 -25.140625 C 7.238281 -24.523438 6.4375 -24.21875 5.46875 -24.21875 Z M 8.171875 -21.640625 L 8.171875 0 L 2.703125 0 L 2.703125 -21.640625 Z M 8.171875 -21.640625 "/>
            </g>
        </g>
    </g>
    <g fill="#ffffff" fill-opacity="1">
        <g transform="translate(165.430844, 212.899205)">
            <g>
                <path d="M 1.296875 -10.828125 C 1.296875 -13.066406 1.75 -15.023438 2.65625 -16.703125 C 3.570312 -18.378906 4.835938 -19.679688 6.453125 -20.609375 C 8.066406 -21.535156 9.914062 -22 12 -22 C 14.675781 -22 16.894531 -21.328125 18.65625 -19.984375 C 20.414062 -18.640625 21.59375 -16.757812 22.1875 -14.34375 L 16.296875 -14.34375 C 15.984375 -15.28125 15.453125 -16.015625 14.703125 -16.546875 C 13.960938 -17.078125 13.046875 -17.34375 11.953125 -17.34375 C 10.390625 -17.34375 9.148438 -16.773438 8.234375 -15.640625 C 7.328125 -14.515625 6.875 -12.910156 6.875 -10.828125 C 6.875 -8.765625 7.328125 -7.164062 8.234375 -6.03125 C 9.148438 -4.90625 10.390625 -4.34375 11.953125 -4.34375 C 14.171875 -4.34375 15.617188 -5.332031 16.296875 -7.3125 L 22.1875 -7.3125 C 21.59375 -4.96875 20.410156 -3.101562 18.640625 -1.71875 C 16.867188 -0.332031 14.65625 0.359375 12 0.359375 C 9.914062 0.359375 8.066406 -0.101562 6.453125 -1.03125 C 4.835938 -1.957031 3.570312 -3.257812 2.65625 -4.9375 C 1.75 -6.625 1.296875 -8.585938 1.296875 -10.828125 Z M 1.296875 -10.828125 "/>
            </g>
        </g>
    </g>
    <g fill="#ffffff" fill-opacity="1">
        <g transform="translate(187.889226, 212.899205)">
            <g>
                <path d="M 15.515625 0 L 8.171875 -9.21875 L 8.171875 0 L 2.703125 0 L 2.703125 -28.90625 L 8.171875 -28.90625 L 8.171875 -12.46875 L 15.4375 -21.640625 L 22.546875 -21.640625 L 13.015625 -10.78125 L 22.625 0 Z M 15.515625 0 "/>
            </g>
        </g>
    </g>
    <g fill="#eb662b" fill-opacity="1">
        <g transform="translate(209.649124, 212.899205)">
            <g>
                <path d="M 16.765625 0 L 10.75 -10.625 L 8.171875 -10.625 L 8.171875 0 L 2.703125 0 L 2.703125 -27.265625 L 12.9375 -27.265625 C 15.039062 -27.265625 16.832031 -26.894531 18.3125 -26.15625 C 19.800781 -25.414062 20.914062 -24.410156 21.65625 -23.140625 C 22.40625 -21.878906 22.78125 -20.46875 22.78125 -18.90625 C 22.78125 -17.113281 22.257812 -15.492188 21.21875 -14.046875 C 20.175781 -12.597656 18.625 -11.601562 16.5625 -11.0625 L 23.09375 0 Z M 8.171875 -14.734375 L 12.734375 -14.734375 C 14.222656 -14.734375 15.332031 -15.085938 16.0625 -15.796875 C 16.789062 -16.515625 17.15625 -17.515625 17.15625 -18.796875 C 17.15625 -20.046875 16.789062 -21.015625 16.0625 -21.703125 C 15.332031 -22.390625 14.222656 -22.734375 12.734375 -22.734375 L 8.171875 -22.734375 Z M 8.171875 -14.734375 "/>
            </g>
        </g>
    </g>
    <g fill="#eb662b" fill-opacity="1">
        <g transform="translate(233.630783, 212.899205)">
            <g>
                <path d="M 12.3125 0.359375 C 10.226562 0.359375 8.351562 -0.101562 6.6875 -1.03125 C 5.019531 -1.957031 3.707031 -3.265625 2.75 -4.953125 C 1.800781 -6.648438 1.328125 -8.609375 1.328125 -10.828125 C 1.328125 -13.035156 1.816406 -14.984375 2.796875 -16.671875 C 3.773438 -18.367188 5.109375 -19.679688 6.796875 -20.609375 C 8.492188 -21.535156 10.382812 -22 12.46875 -22 C 14.550781 -22 16.4375 -21.535156 18.125 -20.609375 C 19.820312 -19.679688 21.15625 -18.367188 22.125 -16.671875 C 23.101562 -14.984375 23.59375 -13.035156 23.59375 -10.828125 C 23.59375 -8.609375 23.09375 -6.648438 22.09375 -4.953125 C 21.09375 -3.265625 19.738281 -1.957031 18.03125 -1.03125 C 16.320312 -0.101562 14.414062 0.359375 12.3125 0.359375 Z M 12.3125 -4.421875 C 13.300781 -4.421875 14.226562 -4.660156 15.09375 -5.140625 C 15.96875 -5.617188 16.664062 -6.335938 17.1875 -7.296875 C 17.707031 -8.265625 17.96875 -9.441406 17.96875 -10.828125 C 17.96875 -12.878906 17.425781 -14.457031 16.34375 -15.5625 C 15.269531 -16.675781 13.953125 -17.234375 12.390625 -17.234375 C 10.828125 -17.234375 9.515625 -16.675781 8.453125 -15.5625 C 7.398438 -14.457031 6.875 -12.878906 6.875 -10.828125 C 6.875 -8.765625 7.390625 -7.179688 8.421875 -6.078125 C 9.453125 -4.972656 10.75 -4.421875 12.3125 -4.421875 Z M 12.3125 -4.421875 "/>
            </g>
        </g>
    </g>
    <g fill="#eb662b" fill-opacity="1">
        <g transform="translate(257.495267, 212.899205)">
            <g>
                <path d="M 23.125 -21.640625 L 23.125 0 L 17.625 0 L 17.625 -2.734375 C 16.914062 -1.796875 15.992188 -1.054688 14.859375 -0.515625 C 13.734375 0.015625 12.503906 0.28125 11.171875 0.28125 C 9.484375 0.28125 7.988281 -0.078125 6.6875 -0.796875 C 5.382812 -1.515625 4.359375 -2.570312 3.609375 -3.96875 C 2.867188 -5.363281 2.5 -7.023438 2.5 -8.953125 L 2.5 -21.640625 L 7.96875 -21.640625 L 7.96875 -9.734375 C 7.96875 -8.015625 8.394531 -6.691406 9.25 -5.765625 C 10.113281 -4.835938 11.289062 -4.375 12.78125 -4.375 C 14.289062 -4.375 15.472656 -4.835938 16.328125 -5.765625 C 17.191406 -6.691406 17.625 -8.015625 17.625 -9.734375 L 17.625 -21.640625 Z M 23.125 -21.640625 "/>
            </g>
        </g>
    </g>
    <g fill="#eb662b" fill-opacity="1">
        <g transform="translate(282.2581, 212.899205)">
            <g>
                <path d="M 9.0625 -17.15625 L 9.0625 -6.6875 C 9.0625 -5.957031 9.238281 -5.425781 9.59375 -5.09375 C 9.945312 -4.769531 10.539062 -4.609375 11.375 -4.609375 L 13.90625 -4.609375 L 13.90625 0 L 10.46875 0 C 5.863281 0 3.5625 -2.238281 3.5625 -6.71875 L 3.5625 -17.15625 L 0.984375 -17.15625 L 0.984375 -21.640625 L 3.5625 -21.640625 L 3.5625 -27 L 9.0625 -27 L 9.0625 -21.640625 L 13.90625 -21.640625 L 13.90625 -17.15625 Z M 9.0625 -17.15625 "/>
            </g>
        </g>
    </g>
    <g fill="#eb662b" fill-opacity="1">
        <g transform="translate(296.357958, 212.899205)">
            <g>
                <path d="M 22.8125 -11.296875 C 22.8125 -10.515625 22.757812 -9.8125 22.65625 -9.1875 L 6.84375 -9.1875 C 6.96875 -7.625 7.507812 -6.398438 8.46875 -5.515625 C 9.4375 -4.628906 10.625 -4.1875 12.03125 -4.1875 C 14.0625 -4.1875 15.507812 -5.054688 16.375 -6.796875 L 22.265625 -6.796875 C 21.640625 -4.710938 20.441406 -3 18.671875 -1.65625 C 16.898438 -0.3125 14.726562 0.359375 12.15625 0.359375 C 10.070312 0.359375 8.203125 -0.101562 6.546875 -1.03125 C 4.890625 -1.957031 3.597656 -3.265625 2.671875 -4.953125 C 1.753906 -6.648438 1.296875 -8.609375 1.296875 -10.828125 C 1.296875 -13.066406 1.75 -15.03125 2.65625 -16.71875 C 3.570312 -18.414062 4.847656 -19.71875 6.484375 -20.625 C 8.128906 -21.539062 10.019531 -22 12.15625 -22 C 14.207031 -22 16.046875 -21.554688 17.671875 -20.671875 C 19.304688 -19.785156 20.570312 -18.523438 21.46875 -16.890625 C 22.363281 -15.265625 22.8125 -13.398438 22.8125 -11.296875 Z M 17.15625 -12.859375 C 17.125 -14.265625 16.613281 -15.390625 15.625 -16.234375 C 14.632812 -17.078125 13.425781 -17.5 12 -17.5 C 10.644531 -17.5 9.503906 -17.085938 8.578125 -16.265625 C 7.648438 -15.453125 7.082031 -14.316406 6.875 -12.859375 Z M 17.15625 -12.859375 "/>
            </g>
        </g>
    </g>
</svg>